<?xml version="1.0" standalone="no"?>
<!DOCTYPE svg PUBLIC "-//W3C//DTD SVG 20010904//EN"
 "http://www.w3.org/TR/2001/REC-SVG-20010904/DTD/svg10.dtd">
<svg version="1.0" xmlns="http://www.w3.org/2000/svg"
 width="320.000000pt" height="320.000000pt" viewBox="0 0 320.000000 320.000000"
 preserveAspectRatio="xMidYMid meet">
<metadata>
Created by potrace 1.11, written by Peter Selinger 2001-2013
</metadata>
<g transform="translate(0.000000,320.000000) scale(0.100000,-0.100000)"
fill="#000000" stroke="none">
<path d="M1535 2816 c-22 -12 -175 -101 -340 -196 -165 -95 -336 -194 -380
-220 -44 -26 -126 -73 -182 -106 l-102 -59 -1 -610 0 -610 22 -14 c36 -23 187
-111 248 -144 30 -17 72 -41 92 -54 21 -13 40 -23 43 -23 3 0 18 -8 33 -19 15
-10 135 -80 267 -156 132 -76 261 -151 286 -166 25 -16 52 -29 60 -29 13 0
115 56 349 192 177 103 605 350 658 380 l52 30 0 608 0 609 -42 29 c-24 16
-70 44 -103 62 -56 31 -327 187 -530 305 -49 29 -112 65 -140 81 -27 16 -57
34 -67 39 -77 46 -168 95 -175 95 -4 0 -26 -11 -48 -24z m2 -563 c-2 -2 -186
-2 -408 -1 l-404 3 195 114 c182 107 324 189 430 249 25 14 77 44 115 67 l70
41 3 -235 c1 -128 1 -236 -1 -238z m182 425 c127 -76 178 -105 366 -213 94
-54 213 -123 265 -154 l95 -56 -400 -3 c-220 -1 -406 0 -412 3 -10 3 -13 60
-13 240 0 129 3 235 6 235 4 0 45 -23 93 -52z m-209 -512 c0 -2 -80 -143 -178
-312 -98 -170 -193 -337 -212 -372 -19 -34 -39 -61 -44 -59 -5 2 -96 154 -202
337 -106 184 -202 350 -213 367 -12 18 -21 35 -21 38 0 3 196 5 435 5 239 0
435 -2 435 -4z m1009 -18 c-6 -13 -36 -65 -65 -115 -30 -51 -78 -135 -108
-185 -30 -51 -99 -171 -154 -266 l-99 -172 -128 222 c-71 123 -168 291 -217
375 -48 84 -88 155 -88 158 0 3 196 5 435 5 l436 0 -12 -22z m-916 -45 c8 -16
49 -89 92 -163 43 -74 103 -178 133 -230 30 -52 62 -108 72 -125 65 -111 110
-194 110 -204 0 -8 -123 -11 -430 -11 -236 0 -430 2 -430 3 0 2 68 123 152
268 83 145 180 315 215 377 36 61 66 112 68 112 2 0 10 -12 18 -27z m-827
-333 c86 -151 176 -309 200 -350 l42 -74 -33 -23 c-19 -13 -36 -23 -39 -23 -2
0 -26 -13 -53 -29 -108 -65 -274 -161 -278 -161 -3 0 -5 212 -5 472 0 259 2
469 4 467 2 -2 75 -128 162 -279z m1780 -657 c-2 -2 -43 20 -92 48 -90 53
-152 89 -256 149 -50 30 -56 36 -46 53 6 11 71 126 146 256 75 130 161 280
191 334 l56 99 3 -468 c1 -257 1 -469 -2 -471z m-536 175 c0 -7 -10 -29 -22
-48 -12 -19 -45 -75 -73 -125 -29 -49 -76 -130 -105 -180 -29 -49 -66 -115
-83 -145 -17 -30 -59 -101 -93 -158 l-62 -103 -64 113 c-36 62 -91 158 -123
213 -32 55 -98 170 -147 255 -50 85 -94 160 -99 166 -5 6 -6 14 -2 17 3 4 201
7 440 7 340 0 433 -3 433 -12z m-937 -50 c9 -18 28 -53 43 -78 36 -61 248
-429 296 -513 22 -38 37 -71 35 -74 -3 -2 -47 20 -99 50 -51 30 -109 64 -128
75 -19 11 -118 68 -220 127 -102 60 -225 130 -273 158 -48 27 -86 51 -84 53
11 11 394 233 403 233 6 1 18 -14 27 -31z m1146 -31 c58 -35 148 -87 199 -116
50 -29 92 -54 92 -56 0 -2 -19 -14 -42 -27 -24 -14 -167 -96 -318 -182 -250
-144 -328 -189 -429 -249 l-33 -20 12 24 c7 13 71 125 143 249 71 124 157 273
190 333 34 59 65 107 70 107 5 0 57 -28 116 -63z"/>
</g>
</svg>
